<svg id="Слой_1" data-name="Слой 1" xmlns="http://www.w3.org/2000/svg" xmlns:xlink="http://www.w3.org/1999/xlink" viewBox="0 0 425.2 141.73"><defs><style>.cls-1{fill:none;}.cls-2{fill:#ea5389;}.cls-3{clip-path:url(#clip-path);}.cls-4{fill:#fff;}</style><clipPath id="clip-path"><rect class="cls-1" y="1" width="425.2" height="140.73"/></clipPath></defs><title>logo</title><rect class="cls-2" width="425.2" height="141.73"/><g class="cls-3"><path class="cls-4" d="M254.73,57.14q0,3.64,0,7.29c0,0.88,0,1.71,1.15,1.66,5.27-.22,10.58-0.07,15.81-0.73,4.73-.61,7.45-6.62,5.75-11.6a6.5,6.5,0,0,0-6.07-4.59c-5.09-.4-10.2-0.42-15.31-0.62-1.12,0-1.35.64-1.34,1.69,0,2.3,0,4.61,0,6.91m0,28.26v8.07c0,0.87,0,1.77,1.12,1.72,5.8-.23,11.67.1,17.37-0.87,7-1.19,8.18-8.08,6.35-13.21-1.36-3.81-4.52-5.13-7.79-5.36-5.22-.37-10.46-0.2-15.7-0.29-1.11,0-1.36.62-1.36,1.68,0,2.75,0,5.51,0,8.26m26.12-15.63c0.71,0.43,1.15.76,1.63,1,4.16,1.9,7.58,4.74,9,9.7,2.7,9.64-1.64,20.48-11.13,23a39.06,39.06,0,0,1-9,1.28c-7.2.18-14.4,0.06-21.6,0.06-4.65,0-6.66-2.18-6.67-7.35q0-25.75,0-51.51c0-5,2-7.08,6.49-7.09,7.66,0,15.32-.06,23,0,4.71,0.05,9.09,1.2,12.68,5,5.95,6.29,6.14,19.36-2.6,24.7-0.49.3-.94,0.65-1.72,1.2"/><path class="cls-4" d="M337,93.28c-1.84,2.11-3.86,3.54-6.65,3.36-2.35-.15-4.72,0-7.08,0-2.19,0-4.38-.13-6.56,0-3.92.28-6.47-2-8.22-5.47C305.9,86,305.89,80.4,307,74.78c0.8-4,2.6-7.26,6.1-9a6.7,6.7,0,0,1,2.82-.7c4.78-.07,9.56,0,14.33-0.05,2.77-.06,4.86,1.29,6.69,3.38,4.72,5.39,4.66,19.61.06,24.88M350.84,74.9c-1.81-11.4-10-18.43-19.61-18.77-5.29-.19-10.6-0.27-15.89,0-7.79.44-13.9,4.23-17.44,12.25-2.75,6.23-3,12.82-1.73,19.48,1.66,8.6,6.26,14.59,13.93,16.84a36.7,36.7,0,0,0,6.16,1.15c2.36,0,4.69-.11,7,0.06l0.13,0h0.15v0c2.59,0,5.19.18,7.76,0,8.72-.73,15.16-5.2,18.36-14.57a33.64,33.64,0,0,0,1.13-16.41"/><path class="cls-4" d="M356.73,56.09c2.27-.38,3.64,1.42,4.91,3.28,2.36,3.47,4.64,7,6.94,10.52,1.41,2.15,1.48,2.15,2.84,0,2.13-3.34,4.22-6.71,6.41-10,1.41-2.12,2.9-4,5.74-3.85,3.78,0.26,5.78,3.69,3.87,7.35-1.41,2.7-3.19,5.15-4.84,7.69s-3.23,5-4.92,7.41a2,2,0,0,0,0,2.54q4.7,7.35,9.29,14.79a19.33,19.33,0,0,1,2,4,4.35,4.35,0,0,1-2.92,5.87,5.35,5.35,0,0,1-6.36-2.59c-2.33-3.65-4.66-7.3-6.92-11-2.7-4.44-2.63-4.45-5.4-.07-2.45,3.87-5,7.7-7.46,11.52a4.89,4.89,0,0,1-5.16,2.31,4.46,4.46,0,0,1-3.55-6.37,46.8,46.8,0,0,1,3.85-7q3.48-5.72,7.12-11.32a2.17,2.17,0,0,0-.06-2.85c-2.8-4.07-5.5-8.21-8.2-12.35a14.9,14.9,0,0,1-1.55-3c-1.42-3.9.45-6.89,4.43-6.89"/><path class="cls-4" d="M330.08,90.23c-4.57-1.49-8.6-.51-12.64.62a2.94,2.94,0,0,1-1.43-.64,3.59,3.59,0,0,1,.64-1.41,7.48,7.48,0,0,1,2.77-1.49c3.16-.57,6.35-0.95,9.54-1.33a1.85,1.85,0,0,1,1.47.39,3.29,3.29,0,0,1,1,2.08,4.61,4.61,0,0,1-1.38,1.78"/><path class="cls-4" d="M314.67,71.5a3.38,3.38,0,0,1,2.92,3.38,3.31,3.31,0,0,1-3,3.24,3.35,3.35,0,0,1-2.83-3.47,3.31,3.31,0,0,1,3-3.15"/><path class="cls-4" d="M334.12,74.87a3.27,3.27,0,0,1-2.87,3.26,3.33,3.33,0,0,1-3-3.36,2.94,2.94,0,1,1,5.84.1"/><path class="cls-4" d="M48,47.93c0,6.07,0,11.68,0,17.29a1.37,1.37,0,0,0,.95,1c5.78-.26,11.6-0.28,17.34-1,4.21-.54,6.16-3.93,6-8.79-0.13-4-2.86-7.46-6.64-7.75-5.77-.45-11.58-0.48-17.68-0.7M70.2,74.72a5.68,5.68,0,0,1,1.06.58c6.89,5.89,11.1,13.88,14.2,22.69a5.41,5.41,0,0,1-2,6.51,5.86,5.86,0,0,1-7.55-.5,27.92,27.92,0,0,1-3.46-5C69.25,93.37,66.18,87.58,62.88,82a11.36,11.36,0,0,0-11.05-6c-3.8.19-3.8,0-3.8,4.27,0,6.15,0,12.3,0,18.44,0,5.28-4.13,8.37-8.45,6.47-2-.88-3-2.67-3.42-4.93A14.58,14.58,0,0,1,36,97.69Q36,71.85,36,46c0-5.94,1.93-8.08,7.3-8.06,8.64,0,17.28-.16,25.9.2a14.94,14.94,0,0,1,13.88,9.72c2.62,6.28,2.54,12.72-1,18.68-2.45,4.13-6.39,5.89-10.46,7.27l-1.09.38-0.34.53"/><path class="cls-4" d="M225.43,81L220,82.51c-3,.8-6,1.39-8.83,2.47s-4.09,3.28-3.87,6.41c0.17,2.48,2.15,5.18,4.58,5.58,8.62,1.4,15.14-4.23,13.61-16m1.26,18.21c-3.51,1.9-6.62,4-10,5.31a16.07,16.07,0,0,1-13.64-.64c-5.27-2.82-7.68-7.83-7.09-14.42a13,13,0,0,1,9.25-11c5.24-1.46,10.55-2.64,15.82-4,1.51-.38,3-0.9,4.43-1.35,0.69-5.58-2-9.18-6.83-9.25-0.75,0-1.5,0-2.25,0-4.05-.11-7.08,1.78-9.17,5.64-1.13,2.1-2.24,4.15-5,3.79-3-.39-4.82-2.85-4.26-6.1A12.55,12.55,0,0,1,206,57.32a22.08,22.08,0,0,1,7.5-1.94A63.31,63.31,0,0,1,226,56c6.16,1,9.87,5.57,10.35,12.46,0.36,5.22.41,10.49,0.33,15.74a48.12,48.12,0,0,0,1.78,14.37,5,5,0,0,1-1.83,5.84,4.35,4.35,0,0,1-5.77.13,17.15,17.15,0,0,1-2.42-2.7c-0.7-.91-1.29-1.93-1.77-2.66"/><path class="cls-4" d="M99.8,76.33a1.61,1.61,0,0,1-1.1-1.13c-0.2-3.94,2.79-9.06,6.07-10.6A9,9,0,0,1,115.44,67a14.31,14.31,0,0,1,2.92,9.36m8.88,12.67c-1.67-1.24-4-.84-5.66.87a56.65,56.65,0,0,1-5,4.69c-7.58,5.93-17.06,1.07-17.94-9.11-0.12-1.39.1-2.05,1.42-2.06a1.75,1.75,0,0,1,.39,0c2.44,0,4.89-.16,7.33-0.14,0.59,0,1.18-.1,1.78-0.11h0c4.66,0,9.32.2,14-.06,4.2-.23,6-2.6,5.9-7.25C129.24,69.44,127.07,64,122.51,60c-6-5.34-12.9-5.7-20-4.07-6.61,1.52-11.26,6-13.78,12.93a34.17,34.17,0,0,0-.6,21.26c1.59,5.66,4.77,10.19,9.66,12.67,7.78,3.94,15.7,4,23.49-.14a14.32,14.32,0,0,0,6.94-7.68c0.92-2.42.5-4.78-1-5.89"/><path class="cls-4" d="M154.29,55.17a19.91,19.91,0,0,1,16.43,6.88,11.21,11.21,0,0,1,3.17,7.25,5.18,5.18,0,0,1-2.84,5,4.11,4.11,0,0,1-5.37-1.08,37.24,37.24,0,0,1-2.36-3.3c-3.47-5.18-8.79-6.75-13.55-4a10.31,10.31,0,0,0-4.41,5.23,23.59,23.59,0,0,0-.28,17.7c1.5,4,4.18,6.52,8.2,7,4.41,0.51,7.9-1.19,10.38-5.33,0.57-1,1.08-2,1.67-2.91,1.89-3,4.12-3.78,6.5-2.42s3.2,4.42,2.3,7.49a15.71,15.71,0,0,1-8.31,10,24.28,24.28,0,0,1-22.58.22c-5-2.45-8.17-7-9.76-12.79a34.59,34.59,0,0,1,.67-20.9c3-8.57,10.46-14.4,20.14-14"/><path class="cls-4" d="M191.12,71.37q0,13.45,0,26.91c0,2.38-.44,4.61-2.28,6.14-3.08,2.56-7.42,1-8.47-3.16a14.1,14.1,0,0,1-.43-3.4q0-26.71,0-53.43a16,16,0,0,1,.37-3.22c0.59-2.83,2.29-4.4,4.7-4.46,3.07-.08,4.89,1.19,5.66,4.13a14.66,14.66,0,0,1,.45,3.59c0,9,0,17.94,0,26.9"/></g></svg>